<svg width="24" height="24" viewBox="0 0 24 24" fill="none" xmlns="http://www.w3.org/2000/svg">
<path d="M9.0016 20H15.0016M9.0016 13C9.0016 12.7348 8.89624 12.4805 8.70871 12.2929C8.52117 12.1054 8.26682 12 8.0016 12H5.0626C4.83613 12.0442 4.60135 12.0087 4.39806 11.8996C4.19477 11.7904 4.03548 11.6143 3.94719 11.4012C3.8589 11.188 3.84706 10.9508 3.91365 10.7299C3.98025 10.509 4.1212 10.3179 4.3126 10.189L11.1486 3.35403C11.2607 3.24195 11.3937 3.15303 11.5402 3.09237C11.6866 3.03171 11.8436 3.00049 12.0021 3.00049C12.1606 3.00049 12.3176 3.03171 12.464 3.09237C12.6105 3.15303 12.7435 3.24195 12.8556 3.35403L19.6906 10.189C19.882 10.3179 20.0229 10.509 20.0895 10.7299C20.1561 10.9508 20.1443 11.188 20.056 11.4012C19.9677 11.6143 19.8084 11.7904 19.6051 11.8996C19.4019 12.0087 19.1671 12.0442 18.9406 12H16.0016C15.7364 12 15.482 12.1054 15.2945 12.2929C15.107 12.4805 15.0016 12.7348 15.0016 13V15C15.0016 15.2652 14.8962 15.5196 14.7087 15.7071C14.5212 15.8947 14.2668 16 14.0016 16H10.0016C9.73638 16 9.48203 15.8947 9.29449 15.7071C9.10696 15.5196 9.0016 15.2652 9.0016 15V13Z" stroke="#7B4B3A" stroke-width="2" stroke-linecap="round" stroke-linejoin="round"/>
</svg>
