<svg width="165" height="25" viewBox="0 0 165 25" fill="none" xmlns="http://www.w3.org/2000/svg">
<path d="M17.5 7.1272H17.51M7 2.6272H17C19.7614 2.6272 22 4.86577 22 7.6272V17.6272C22 20.3886 19.7614 22.6272 17 22.6272H7C4.23858 22.6272 2 20.3886 2 17.6272V7.6272C2 4.86577 4.23858 2.6272 7 2.6272ZM16 11.9972C16.1234 12.8294 15.9813 13.6794 15.5938 14.4262C15.2063 15.173 14.5931 15.7786 13.8416 16.1569C13.0901 16.5351 12.2384 16.6668 11.4078 16.5331C10.5771 16.3995 9.80976 16.0073 9.21484 15.4124C8.61992 14.8174 8.22773 14.0501 8.09407 13.2194C7.9604 12.3887 8.09207 11.5371 8.47033 10.7856C8.84859 10.0341 9.45419 9.42094 10.201 9.03344C10.9478 8.64594 11.7978 8.50379 12.63 8.6272C13.4789 8.75308 14.2649 9.14866 14.8717 9.7555C15.4785 10.3623 15.8741 11.1483 16 11.9972Z" stroke="black" stroke-width="2" stroke-linecap="round" stroke-linejoin="round"/>
<path d="M63 8.6272C64.5913 8.6272 66.1174 9.25934 67.2426 10.3846C68.3679 11.5098 69 13.0359 69 14.6272V21.6272H65V14.6272C65 14.0968 64.7893 13.5881 64.4142 13.213C64.0391 12.8379 63.5304 12.6272 63 12.6272C62.4696 12.6272 61.9609 12.8379 61.5858 13.213C61.2107 13.5881 61 14.0968 61 14.6272V21.6272H57V14.6272C57 13.0359 57.6321 11.5098 58.7574 10.3846C59.8826 9.25934 61.4087 8.6272 63 8.6272Z" stroke="black" stroke-width="2" stroke-linecap="round" stroke-linejoin="round"/>
<path d="M53 9.6272H49V21.6272H53V9.6272Z" stroke="black" stroke-width="2" stroke-linecap="round" stroke-linejoin="round"/>
<path d="M51 6.6272C52.1046 6.6272 53 5.73177 53 4.6272C53 3.52263 52.1046 2.6272 51 2.6272C49.8954 2.6272 49 3.52263 49 4.6272C49 5.73177 49.8954 6.6272 51 6.6272Z" stroke="black" stroke-width="2" stroke-linecap="round" stroke-linejoin="round"/>
<path d="M112 2.6272H109C107.674 2.6272 106.402 3.15398 105.464 4.09166C104.527 5.02935 104 6.30111 104 7.6272V10.6272H101V14.6272H104V22.6272H108V14.6272H111L112 10.6272H108V7.6272C108 7.36198 108.105 7.10763 108.293 6.92009C108.48 6.73255 108.735 6.6272 109 6.6272H112V2.6272Z" stroke="black" stroke-width="2" stroke-linecap="round" stroke-linejoin="round"/>
<path d="M163 4.62722C163 4.62722 162.3 6.72722 161 8.02722C162.6 18.0272 151.6 25.3272 143 19.6272C145.2 19.7272 147.4 19.0272 149 17.6272C144 16.1272 141.5 10.2272 144 5.62722C146.2 8.22722 149.6 9.72722 153 9.62722C152.1 5.42722 157 3.02722 160 5.82722C161.1 5.82722 163 4.62722 163 4.62722Z" stroke="black" stroke-width="2" stroke-linecap="round" stroke-linejoin="round"/>
</svg>
